<svg width="220" height="150" viewBox="42 34 218 146" fill="none" xmlns="http://www.w3.org/2000/svg">
  <defs>
    <linearGradient id="boxFront" x1="130" y1="75" x2="132" y2="161" gradientUnits="userSpaceOnUse">
      <stop stop-color="#C99D61"/>
      <stop offset="1" stop-color="#E7C996"/>
    </linearGradient>
    <linearGradient id="boxLeft" x1="67" y1="77" x2="99" y2="153" gradientUnits="userSpaceOnUse">
      <stop stop-color="#F0D39C"/>
      <stop offset="1" stop-color="#D7AA6E"/>
    </linearGradient>
    <linearGradient id="boxRight" x1="185" y1="74" x2="152" y2="153" gradientUnits="userSpaceOnUse">
      <stop stop-color="#E8C78E"/>
      <stop offset="1" stop-color="#C99351"/>
    </linearGradient>
    <linearGradient id="tag" x1="210" y1="54" x2="256" y2="137" gradientUnits="userSpaceOnUse">
      <stop stop-color="#4F9BFF"/>
      <stop offset="1" stop-color="#1261E8"/>
    </linearGradient>
    <filter id="softShadow" x="0" y="0" width="304" height="185" filterUnits="userSpaceOnUse" color-interpolation-filters="sRGB">
      <feDropShadow dx="0" dy="10" stdDeviation="10" flood-color="#6A7FA8" flood-opacity="0.18"/>
    </filter>
  </defs>

  <ellipse cx="151" cy="160" rx="103" ry="16" fill="#DDE8FB" opacity="0.65"/>

  <g filter="url(#softShadow)">
    <!-- box body -->
    <path d="M66 73L125 47L208 69L149 96L66 73Z" fill="#E2BC81"/>
    <path d="M66 73L149 96V157L66 132V73Z" fill="url(#boxLeft)"/>
    <path d="M149 96L208 69V131L149 157V96Z" fill="url(#boxRight)"/>
    <path d="M91 89L149 96L149 157L91 140V89Z" fill="url(#boxFront)" opacity="0.75"/>

    <!-- folded flaps -->
    <path d="M66 73L101 42L125 47L90 91L66 73Z" fill="#F4D7A0"/>
    <path d="M125 47L149 96L112 101L90 91L125 47Z" fill="#D8AA6A"/>
    <path d="M125 47L176 42L208 69L149 96L125 47Z" fill="#F2D49B"/>
    <path d="M149 96L208 69L226 100L181 112L149 96Z" fill="#D0A064"/>

    <!-- tag string -->
    <path d="M203 64C217 52 230 56 239 73" stroke="#4A6F9C" stroke-width="5" stroke-linecap="round"/>
    <path d="M205 68C218 58 227 61 235 76" stroke="#315B87" stroke-width="3" stroke-linecap="round"/>

    <!-- blue price tag -->
    <g transform="rotate(-12 224 100)">
      <path d="M198 65H247C252 65 256 69 256 74V132C256 137 252 141 247 141H198C193 141 189 137 189 132V74C189 69 193 65 198 65Z" fill="url(#tag)"/>
      <path d="M198 65H247C252 65 256 69 256 74V132C256 137 252 141 247 141H198C193 141 189 137 189 132V74C189 69 193 65 198 65Z" stroke="#0B56D9" stroke-width="1.5" opacity="0.35"/>
      <circle cx="204" cy="76" r="6" fill="#9CC7FF" opacity="0.9"/>
      <!-- won symbol -->
      <path d="M207 95L216 121L224 95L233 121L242 95" stroke="white" stroke-width="7" stroke-linecap="round" stroke-linejoin="round"/>
      <path d="M206 105H243" stroke="white" stroke-width="5" stroke-linecap="round"/>
      <path d="M207 114H242" stroke="white" stroke-width="5" stroke-linecap="round"/>
    </g>
  </g>
</svg>
