<svg width="1024" height="1024" viewBox="0 0 1024 1024" fill="none" xmlns="http://www.w3.org/2000/svg">
  <defs>
    <linearGradient id="blob" x1="190" y1="167" x2="834" y2="874" gradientUnits="userSpaceOnUse">
      <stop stop-color="#6F79FF"/>
      <stop offset=".34" stop-color="#1D75FF"/>
      <stop offset="1" stop-color="#0052FF"/>
    </linearGradient>
    <linearGradient id="shine" x1="363" y1="220" x2="774" y2="875" gradientUnits="userSpaceOnUse">
      <stop stop-color="#FFFFFF" stop-opacity=".33"/>
      <stop offset=".6" stop-color="#FFFFFF" stop-opacity="0"/>
    </linearGradient>
    <filter id="shadow" x="-18%" y="-18%" width="136%" height="136%" color-interpolation-filters="sRGB">
      <feDropShadow dx="0" dy="28" stdDeviation="30" flood-color="#0057FF" flood-opacity=".26"/>
      <feDropShadow dx="0" dy="8" stdDeviation="10" flood-color="#001E64" flood-opacity=".14"/>
    </filter>
    <filter id="markShadow" x="-20%" y="-20%" width="140%" height="140%" color-interpolation-filters="sRGB">
      <feDropShadow dx="0" dy="16" stdDeviation="12" flood-color="#003BB8" flood-opacity=".28"/>
    </filter>
  </defs>

  <rect width="1024" height="1024" fill="white"/>
  <g filter="url(#shadow)">
    <path d="M512 124C582 124 613 184 662 207C715 232 780 211 824 255C868 299 847 364 871 417C894 466 955 498 955 569C955 639 895 671 871 720C846 773 868 838 824 882C780 926 715 905 662 930C613 953 582 1013 512 1013C441 1013 410 953 361 930C308 905 243 926 199 882C155 838 177 773 153 720C130 671 69 639 69 569C69 498 130 466 153 417C177 364 155 299 199 255C243 211 308 232 361 207C410 184 441 124 512 124Z" fill="url(#blob)"/>
    <path d="M512 124C582 124 613 184 662 207C715 232 780 211 824 255C868 299 847 364 871 417C894 466 955 498 955 569C955 639 895 671 871 720C846 773 868 838 824 882C780 926 715 905 662 930C613 953 582 1013 512 1013C441 1013 410 953 361 930C308 905 243 926 199 882C155 838 177 773 153 720C130 671 69 639 69 569C69 498 130 466 153 417C177 364 155 299 199 255C243 211 308 232 361 207C410 184 441 124 512 124Z" fill="url(#shine)"/>
  </g>

  <g filter="url(#markShadow)" stroke="#FFFFFF" stroke-width="54" stroke-linecap="round" stroke-linejoin="round">
    <path d="M394 373H298V469"/>
    <path d="M630 373H726V469"/>
    <path d="M394 766H298V670"/>
    <path d="M630 766H726V670"/>
    <path d="M405 565L492 652L656 488" stroke-width="72"/>
  </g>
</svg>