<svg width="1024" height="1024" viewBox="0 0 1024 1024" fill="none" xmlns="http://www.w3.org/2000/svg">
  <defs>
    <linearGradient id="blueMain" x1="221" y1="190" x2="822" y2="805" gradientUnits="userSpaceOnUse">
      <stop stop-color="#A9D3FF"/>
      <stop offset=".38" stop-color="#4A95FF"/>
      <stop offset="1" stop-color="#0057FF"/>
    </linearGradient>
    <linearGradient id="blueDark" x1="262" y1="221" x2="824" y2="825" gradientUnits="userSpaceOnUse">
      <stop stop-color="#2F86FF"/>
      <stop offset=".65" stop-color="#0062FF"/>
      <stop offset="1" stop-color="#003EEB"/>
    </linearGradient>
    <linearGradient id="ice" x1="183" y1="112" x2="773" y2="749" gradientUnits="userSpaceOnUse">
      <stop stop-color="#F8FCFF"/>
      <stop offset=".42" stop-color="#BFDFFF"/>
      <stop offset="1" stop-color="#4A91FF"/>
    </linearGradient>
    <linearGradient id="whiteGloss" x1="609" y1="359" x2="817" y2="640" gradientUnits="userSpaceOnUse">
      <stop stop-color="#FFFFFF"/>
      <stop offset=".55" stop-color="#D8EBFF"/>
      <stop offset="1" stop-color="#9AC7FF"/>
    </linearGradient>
    <filter id="softShadow" x="-20%" y="-20%" width="140%" height="150%" color-interpolation-filters="sRGB">
      <feDropShadow dx="0" dy="34" stdDeviation="28" flood-color="#0057FF" flood-opacity=".28"/>
      <feDropShadow dx="0" dy="8" stdDeviation="10" flood-color="#001E64" flood-opacity=".2"/>
    </filter>
    <filter id="inner" x="-20%" y="-20%" width="140%" height="140%" color-interpolation-filters="sRGB">
      <feDropShadow dx="0" dy="8" stdDeviation="8" flood-color="#0038B8" flood-opacity=".28"/>
    </filter>
    <filter id="textShadow" x="-20%" y="-20%" width="140%" height="140%">
      <feDropShadow dx="0" dy="2" stdDeviation="1.5" flood-color="#003DE6" flood-opacity=".35"/>
    </filter>
  </defs>

  <ellipse cx="520" cy="833" rx="430" ry="58" fill="#0B61FF" opacity=".18"/>
  <g filter="url(#softShadow)">
    <g transform="rotate(-7 451 449)">
      <rect x="139" y="164" width="616" height="506" rx="52" fill="url(#blueMain)"/>
      <rect x="166" y="193" width="562" height="445" rx="34" fill="#DDEEFF" opacity=".2"/>
      <rect x="187" y="210" width="522" height="404" rx="28" fill="#0E65FF" opacity=".13"/>
      <rect x="159" y="181" width="578" height="470" rx="43" stroke="url(#ice)" stroke-width="32"/>
      <path d="M177 611L329 422C348 399 383 399 402 423L527 579L596 486C615 461 653 462 672 488L755 604L177 611Z" fill="url(#blueMain)" stroke="#186EFF" stroke-opacity=".45" stroke-width="2"/>
      <path d="M187 605L331 433C348 413 379 413 395 434L525 596H185L187 605Z" fill="#76B4FF"/>
      <path d="M410 528L593 319C612 297 646 297 664 320L756 436V605H522L410 528Z" fill="#5CA5FF"/>
      <circle cx="285" cy="283" r="45" fill="url(#blueMain)" stroke="#0A5FFF" stroke-opacity=".2"/>
      <rect x="175" y="624" width="563" height="37" rx="18.5" fill="#EEF7FF" opacity=".82"/>
    </g>

    <g>
      <path d="M138 646C154 626 181 616 207 624C225 630 243 630 261 624C289 614 319 628 331 656C345 689 336 725 334 761C331 819 288 866 234 880C181 866 139 819 136 761C134 724 116 676 138 646Z" fill="url(#whiteGloss)"/>
      <path d="M161 640C176 630 193 627 210 633C228 639 247 639 265 632C287 625 311 636 322 657C304 704 271 756 233 798C196 758 169 706 161 640Z" fill="#C9E3FF" opacity=".72"/>
      <path d="M185 744L225 783L302 683" stroke="#FFFFFF" stroke-width="43" stroke-linecap="round" stroke-linejoin="round"/>
      <path d="M185 744L225 783L302 683" stroke="#7FB7FF" stroke-width="19" stroke-linecap="round" stroke-linejoin="round" opacity=".75"/>
    </g>

    <g filter="url(#inner)">
      <circle cx="707" cy="484" r="154" fill="url(#blueDark)"/>
      <circle cx="707" cy="484" r="123" fill="url(#whiteGloss)"/>
      <circle cx="707" cy="484" r="145" stroke="#B7DAFF" stroke-width="18" opacity=".82"/>
      <path d="M802 600L849 646" stroke="#77B5FF" stroke-width="26" stroke-linecap="round"/>
      <rect x="842" y="638" width="86" height="204" rx="34" transform="rotate(-45 842 638)" fill="url(#blueDark)"/>
      <rect x="844" y="639" width="86" height="204" rx="34" transform="rotate(-45 844 639)" stroke="#B2D7FF" stroke-width="8" opacity=".36"/>
      <text x="707" y="525" text-anchor="middle" font-family="Inter, Arial, sans-serif" font-size="116" font-weight="800" fill="#045CFF" filter="url(#textShadow)">AI</text>
    </g>
  </g>
</svg>